<svg xmlns="http://www.w3.org/2000/svg" width="24" height="24" viewBox="0 0 24 24" fill="none" stroke="currentColor" stroke-width="1.5" stroke-linecap="round" stroke-linejoin="round">
  <!-- Gauge arc -->
  <path d="M4.2 16.5A9 9 0 0 1 12 3a9 9 0 0 1 7.8 13.5"/>
  <!-- Gauge base line -->
  <line x1="3" y1="19" x2="21" y2="19"/>
  <!-- Needle -->
  <line x1="12" y1="12" x2="16.5" y2="7.5"/>
  <!-- Center dot -->
  <circle cx="12" cy="12" r="1"/>
  <!-- Tick marks -->
  <line x1="5.5" y1="16" x2="6.5" y2="15"/>
  <line x1="4.5" y1="12" x2="5.5" y2="12"/>
  <line x1="6" y1="8" x2="7" y2="8.5"/>
  <line x1="9" y1="5.5" x2="9.5" y2="6.5"/>
  <line x1="14.5" y1="5.5" x2="14" y2="6.5"/>
  <line x1="17.5" y1="8" x2="17" y2="8.5"/>
  <line x1="19.5" y1="12" x2="18.5" y2="12"/>
  <line x1="18.5" y1="16" x2="17.5" y2="15"/>
</svg>
