<svg xmlns="http://www.w3.org/2000/svg" width="24" height="24" viewBox="0 0 24 24" fill="none" stroke="currentColor" stroke-width="1.5" stroke-linecap="round" stroke-linejoin="round">
  <!-- Trophy cup -->
  <path d="M8 4h8v6a4 4 0 0 1-8 0V4z"/>
  <!-- Left handle -->
  <path d="M8 6H5a1 1 0 0 0-1 1v1a3 3 0 0 0 3 3h1"/>
  <!-- Right handle -->
  <path d="M16 6h3a1 1 0 0 1 1 1v1a3 3 0 0 1-3 3h-1"/>
  <!-- Stem -->
  <line x1="12" y1="14" x2="12" y2="18"/>
  <!-- Base -->
  <path d="M8 21h8"/>
  <path d="M10 18h4v3h-4z"/>
</svg>
