<svg xmlns="http://www.w3.org/2000/svg" width="24" height="24" viewBox="0 0 24 24" fill="none" stroke="currentColor" stroke-linecap="round" stroke-linejoin="round">
  <g stroke-width="2">
    <path d="M3 7a2 2 0 0 1 2-2h14a2 2 0 0 1 2 2v3a2 2 0 0 0 0 4v3a2 2 0 0 1-2 2H5a2 2 0 0 1-2-2v-3a2 2 0 0 0 0-4V7z"/></g>
  <g stroke-width="1">
    <line x1="9" y1="5" x2="9" y2="7" stroke-dasharray="2 1.5"/>
    <line x1="9" y1="10" x2="9" y2="14" stroke-dasharray="2 1.5"/>
    <line x1="9" y1="17" x2="9" y2="19" stroke-dasharray="2 1.5"/>
    <path d="M15 9l1 2h2l-1.5 1.5.5 2-2-1-2 1 .5-2L12 11h2z"/></g>
</svg>
