<svg xmlns="http://www.w3.org/2000/svg" width="24" height="24" viewBox="0 0 24 24" fill="none" stroke="currentColor" stroke-width="1.5" stroke-linecap="round" stroke-linejoin="round">
  <!-- Body -->
  <rect x="4" y="2" width="16" height="20" rx="2"/>
  <!-- Screen -->
  <rect x="7" y="5" width="10" height="4" rx="1"/>
  <!-- Buttons -->
  <line x1="7" y1="12" x2="7" y2="12"/>
  <line x1="10.5" y1="12" x2="10.5" y2="12"/>
  <line x1="14" y1="12" x2="14" y2="12"/>
  <line x1="17" y1="12" x2="17" y2="12"/>
  <line x1="7" y1="15.5" x2="7" y2="15.5"/>
  <line x1="10.5" y1="15.5" x2="10.5" y2="15.5"/>
  <line x1="14" y1="15.5" x2="14" y2="15.5"/>
  <line x1="17" y1="15.5" x2="17" y2="15.5"/>
  <line x1="7" y1="19" x2="7" y2="19"/>
  <line x1="10.5" y1="19" x2="10.5" y2="19"/>
  <line x1="14" y1="19" x2="14" y2="19"/>
  <line x1="17" y1="19" x2="17" y2="19"/>
</svg>
