<svg xmlns="http://www.w3.org/2000/svg" width="24" height="24" viewBox="0 0 24 24" fill="none" stroke="currentColor" stroke-linecap="round" stroke-linejoin="round">
  <g stroke-width="2">
    <path d="M22 16.9v3a2 2 0 0 1-2.2 2 19.8 19.8 0 0 1-8.6-3.1 19.5 19.5 0 0 1-6-6A19.8 19.8 0 0 1 2.1 4.2 2 2 0 0 1 4 2h3a2 2 0 0 1 2 1.7 12.7 12.7 0 0 0 .7 2.8 2 2 0 0 1-.5 2.1L8 9.7a16 16 0 0 0 6 6l1.1-1.1a2 2 0 0 1 2.1-.5 12.7 12.7 0 0 0 2.8.7A2 2 0 0 1 22 16.9z"/></g>
  <g stroke-width="1">
    <path d="M17 2a5 5 0 0 1 5 5" fill="none"/>
    <path d="M17 6a1 1 0 0 1 1 1" fill="none"/></g>
</svg>
