<svg xmlns="http://www.w3.org/2000/svg" width="24" height="24" viewBox="0 0 24 24" fill="none" stroke="currentColor" stroke-linecap="round" stroke-linejoin="round">
  <g stroke-width="2">
    <path d="M8 4h8v6a4 4 0 0 1-8 0V4z"/></g>
  <g stroke-width="1">
    <path d="M8 6H5a1 1 0 0 0-1 1v1a3 3 0 0 0 3 3h1"/>
    <path d="M16 6h3a1 1 0 0 1 1 1v1a3 3 0 0 1-3 3h-1"/>
    <line x1="12" y1="14" x2="12" y2="18"/>
    <line x1="8" y1="21" x2="16" y2="21"/>
    <rect x="10" y="18" width="4" height="3"/></g>
</svg>
